<svg width="32" height="32" viewBox="0 0 32 32" fill="none" xmlns="http://www.w3.org/2000/svg">
<path d="M16.0026 22.6654C16.7098 22.6654 17.3881 22.3844 17.8882 21.8843C18.3883 21.3842 18.6693 20.7059 18.6693 19.9987C18.6693 19.2915 18.3883 18.6132 17.8882 18.1131C17.3881 17.613 16.7098 17.332 16.0026 17.332C15.2954 17.332 14.6171 17.613 14.117 18.1131C13.6169 18.6132 13.3359 19.2915 13.3359 19.9987C13.3359 20.7059 13.6169 21.3842 14.117 21.8843C14.6171 22.3844 15.2954 22.6654 16.0026 22.6654ZM24.0026 10.6654C24.7099 10.6654 25.3881 10.9463 25.8882 11.4464C26.3883 11.9465 26.6693 12.6248 26.6693 13.332V26.6654C26.6693 27.3726 26.3883 28.0509 25.8882 28.551C25.3881 29.0511 24.7099 29.332 24.0026 29.332H8.0026C7.29536 29.332 6.61708 29.0511 6.11699 28.551C5.61689 28.0509 5.33594 27.3726 5.33594 26.6654V13.332C5.33594 12.6248 5.61689 11.9465 6.11699 11.4464C6.61708 10.9463 7.29536 10.6654 8.0026 10.6654H9.33594V7.9987C9.33594 6.23059 10.0383 4.5349 11.2886 3.28465C12.5388 2.03441 14.2345 1.33203 16.0026 1.33203C16.8781 1.33203 17.745 1.50447 18.5538 1.8395C19.3627 2.17453 20.0976 2.6656 20.7167 3.28465C21.3357 3.90371 21.8268 4.63864 22.1618 5.44747C22.4968 6.25631 22.6693 7.12322 22.6693 7.9987V10.6654H24.0026ZM16.0026 3.9987C14.9417 3.9987 13.9243 4.42013 13.1742 5.17027C12.424 5.92042 12.0026 6.93783 12.0026 7.9987V10.6654H20.0026V7.9987C20.0026 6.93783 19.5812 5.92042 18.831 5.17027C18.0809 4.42013 17.0635 3.9987 16.0026 3.9987Z" fill="#17BE79"/>
<path d="M19.0026 19.9987C19.0026 21.6556 17.6595 22.9987 16.0026 22.9987C14.3457 22.9987 13.0026 21.6556 13.0026 19.9987C13.0026 18.3418 14.3457 16.9987 16.0026 16.9987C17.6595 16.9987 19.0026 18.3418 19.0026 19.9987Z" fill="#17BE79"/>
</svg>
