<svg xmlns="http://www.w3.org/2000/svg" fill="none" viewBox="79.8 0 15.200000000000001 18.81" style="max-height: 500px" width="15.200000000000001" height="18.81">
<path fill="#272B37" d="M12.375 18H0.675V15.425L6.65 9.275C7.98333 7.85833 8.65 6.69167 8.65 5.775C8.65 5.09167 8.43333 4.54167 8 4.125C7.58333 3.70833 7.04167 3.5 6.375 3.5C5.04167 3.5 4.06667 4.18333 3.45 5.55L0.55 3.85C1.08333 2.66667 1.85833 1.75833 2.875 1.125C3.90833 0.474999 5.05833 0.149999 6.325 0.149999C7.90833 0.149999 9.26667 0.649999 10.4 1.65C11.5333 2.63333 12.1 3.96667 12.1 5.65C12.1 7.46667 11.1417 9.33333 9.225 11.25L5.8 14.675H12.375V18ZM24.7389 11.825H26.6139V15.025H24.7389V18H21.2639V15.025H12.9889V11.825L18.8139 0.499999H22.5139L16.7139 11.825H21.2639V7.675H24.7389V11.825ZM44.4908 11.825H46.3658V15.025H44.4908V18H41.0158V15.025H32.7408V11.825L38.5658 0.499999H42.2658L36.4658 11.825H41.0158V7.675H44.4908V11.825ZM58.9795 6.225C58.9795 7.575 58.6295 8.75833 57.9295 9.775H57.9545L52.5045 18H48.5545L52.4545 12.3C50.6378 12.2833 49.1545 11.7083 48.0045 10.575C46.8712 9.44167 46.3045 7.99167 46.3045 6.225C46.3045 4.425 46.8878 2.96667 48.0545 1.85C49.2378 0.716666 50.7628 0.149999 52.6295 0.149999C54.4962 0.149999 56.0212 0.716666 57.2045 1.85C58.3878 2.98333 58.9795 4.44167 58.9795 6.225ZM49.7295 6.225C49.7295 7.075 50.0045 7.76667 50.5545 8.3C51.1045 8.81667 51.7962 9.075 52.6295 9.075C53.4962 9.075 54.1962 8.81667 54.7295 8.3C55.2795 7.76667 55.5545 7.075 55.5545 6.225C55.5545 5.375 55.2795 4.69167 54.7295 4.175C54.1962 3.65833 53.4962 3.4 52.6295 3.4C51.7962 3.4 51.1045 3.66667 50.5545 4.2C50.0045 4.71667 49.7295 5.39167 49.7295 6.225ZM66.9229 18.35C64.7395 18.35 63.0229 17.525 61.7729 15.875C60.5395 14.1917 59.9229 11.9833 59.9229 9.25C59.9229 6.51667 60.5395 4.31667 61.7729 2.65C63.0229 0.983332 64.7395 0.149999 66.9229 0.149999C69.1395 0.149999 70.8562 0.983332 72.0729 2.65C73.3062 4.31667 73.9229 6.51667 73.9229 9.25C73.9229 11.9833 73.3062 14.1917 72.0729 15.875C70.8562 17.525 69.1395 18.35 66.9229 18.35ZM70.4979 9.25C70.4979 7.38333 70.1895 5.95833 69.5729 4.975C68.9729 3.99167 68.0895 3.5 66.9229 3.5C65.7562 3.5 64.8729 3.99167 64.2729 4.975C63.6729 5.95833 63.3729 7.38333 63.3729 9.25C63.3729 11.1167 63.6729 12.5417 64.2729 13.525C64.8729 14.4917 65.7562 14.975 66.9229 14.975C68.0895 14.975 68.9729 14.4833 69.5729 13.5C70.1895 12.5167 70.4979 11.1 70.4979 9.25ZM88.7699 11.925H85.6699V13.3H91.2449V15.5H85.6699V18H82.2449V15.5H80.3699V13.3H82.2449V11.925H80.3699V8.9H82.2449V0.499999H88.7699C90.4199 0.499999 91.8116 1.06667 92.9449 2.2C94.0949 3.33333 94.6699 4.7 94.6699 6.3C94.6699 7.9 94.1033 9.24167 92.9699 10.325C91.8533 11.3917 90.4533 11.925 88.7699 11.925ZM88.7699 3.725H85.6699V8.9H88.7699C89.4699 8.9 90.0533 8.65 90.5199 8.15C91.0033 7.65 91.2449 7.03333 91.2449 6.3C91.2449 5.56667 91.0033 4.95833 90.5199 4.475C90.0533 3.975 89.4699 3.725 88.7699 3.725Z"/>
</svg>