<svg width="22" height="22" viewBox="0 0 22 22" fill="none" xmlns="http://www.w3.org/2000/svg">
<path d="M1.29249 0.392578C1.0533 0.392578 0.823907 0.485706 0.654775 0.651475C0.485643 0.817244 0.390625 1.04207 0.390625 1.27651C0.390625 1.51094 0.485643 1.73577 0.654775 1.90154C0.823907 2.06731 1.0533 2.16044 1.29249 2.16044H1.7362C1.93204 2.16077 2.12244 2.22357 2.27864 2.33934C2.43483 2.45512 2.54834 2.61757 2.60199 2.80217L5.4627 12.6138C5.6245 13.1675 5.96584 13.6545 6.4351 14.0012C6.90436 14.3479 7.47603 14.5354 8.06368 14.5354H16.3049C16.8457 14.5355 17.3742 14.3767 17.8221 14.0796C18.2699 13.7824 18.6167 13.3605 18.8175 12.8683L21.4762 6.35202C21.5855 6.08389 21.6261 5.79359 21.5945 5.50651C21.5629 5.21943 21.46 4.94431 21.2949 4.70519C21.1298 4.46608 20.9074 4.27024 20.6472 4.13481C20.387 3.99938 20.0969 3.92848 19.8023 3.92829H4.80615L4.33537 2.31601C4.17399 1.76227 3.83307 1.27507 3.36414 0.928056C2.89522 0.581044 2.32378 0.393081 1.7362 0.392578H1.29249ZM8.50739 21.6069C8.8627 21.6069 9.21452 21.5383 9.54278 21.405C9.87103 21.2717 10.1693 21.0764 10.4205 20.8302C10.6718 20.5839 10.8711 20.2916 11.007 19.9699C11.143 19.6481 11.213 19.3033 11.213 18.9551C11.213 18.6068 11.143 18.262 11.007 17.9403C10.8711 17.6186 10.6718 17.3262 10.4205 17.08C10.1693 16.8337 9.87103 16.6384 9.54278 16.5051C9.21452 16.3719 8.8627 16.3033 8.50739 16.3033C7.78983 16.3033 7.10165 16.5827 6.59425 17.08C6.08686 17.5773 5.8018 18.2518 5.8018 18.9551C5.8018 19.6584 6.08686 20.3329 6.59425 20.8302C7.10165 21.3275 7.78983 21.6069 8.50739 21.6069ZM15.7223 21.6069C16.0776 21.6069 16.4294 21.5383 16.7577 21.405C17.0859 21.2717 17.3842 21.0764 17.6354 20.8302C17.8867 20.5839 18.086 20.2916 18.2219 19.9699C18.3579 19.6481 18.4279 19.3033 18.4279 18.9551C18.4279 18.6068 18.3579 18.262 18.2219 17.9403C18.086 17.6186 17.8867 17.3262 17.6354 17.08C17.3842 16.8337 17.0859 16.6384 16.7577 16.5051C16.4294 16.3719 16.0776 16.3033 15.7223 16.3033C15.0047 16.3033 14.3166 16.5827 13.8092 17.08C13.3018 17.5773 13.0167 18.2518 13.0167 18.9551C13.0167 19.6584 13.3018 20.3329 13.8092 20.8302C14.3166 21.3275 15.0047 21.6069 15.7223 21.6069Z" fill="white"/>
</svg>
