<svg width="45" height="45" viewBox="0 0 45 45" fill="none" xmlns="http://www.w3.org/2000/svg">
<circle cx="22.4498" cy="22.7252" r="22.0123" fill="#E9EDF3"/>
<g clip-path="url(#clip0_1_142)">
<path d="M31.4786 21.8156L22.6832 30.611C21.6057 31.6885 20.1443 32.2938 18.6205 32.2938C17.0967 32.2938 15.6353 31.6885 14.5578 30.611C13.4803 29.5335 12.875 28.0721 12.875 26.5483C12.875 25.0245 13.4803 23.5631 14.5578 22.4856L23.3532 13.6902C24.0715 12.9719 25.0458 12.5684 26.0616 12.5684C27.0775 12.5684 28.0518 12.9719 28.7701 13.6902C29.4884 14.4086 29.892 15.3828 29.892 16.3987C29.892 17.4146 29.4884 18.3888 28.7701 19.1072L19.9652 27.9025C19.606 28.2617 19.1189 28.4635 18.611 28.4635C18.103 28.4635 17.6159 28.2617 17.2567 27.9025C16.8976 27.5434 16.6958 27.0562 16.6958 26.5483C16.6958 26.0403 16.8976 25.5532 17.2567 25.194L25.3821 17.0782" stroke="#272B37" stroke-width="1.91411" stroke-linecap="round" stroke-linejoin="round"/>
</g>
<defs>
<clipPath id="clip0_1_142">
<rect width="22.9693" height="22.9693" fill="white" transform="translate(10.9531 11.2422)"/>
</clipPath>
</defs>
</svg>
