<svg width="248" height="32" viewBox="0 0 248 32" fill="none" xmlns="http://www.w3.org/2000/svg">
<path d="M0.703125 16.3246C0.703125 25.3484 8.20228 31.3789 18.4194 31.3789C21.697 31.4232 24.9292 30.6816 27.7881 29.2292V24.0424C25.026 25.7462 21.7612 26.6565 18.4194 26.6546C11.8518 26.6546 6.63618 22.78 6.63618 16.3246C6.63618 9.71914 11.6379 5.99466 18.4194 5.99466C21.7695 5.97985 25.0425 6.90549 27.7881 8.64432V3.50123C24.9602 1.97235 21.7117 1.20092 18.4194 1.27647C7.86423 1.27647 0.703125 6.99448 0.703125 16.3246Z" fill="#272B37"/>
<path d="M57.5837 10.6897C57.5837 5.9624 52.9348 2.38657 46.7572 2.38657H32.4985V30.2656H38.3648V19.1685H45.8443L53.8901 30.2656H60.7611L51.6256 18.1443C54.9302 16.8352 57.5837 14.1928 57.5837 10.6897ZM45.5541 14.9322H38.3365V6.81087H46.4669C49.5097 6.81087 51.6397 8.11388 51.6397 10.9442C51.668 13.6351 48.6252 14.9018 45.5824 14.9018L45.5541 14.9322Z" fill="#272B37"/>
<path d="M73.3043 18.2672L64.3835 2.38657H58.4059L68.8828 20.7603H71.9104L66.6527 30.2656H72.39L87.8461 2.38657H82.1085L73.3043 18.2672Z" fill="#272B37"/>
<path d="M105.114 2.38657H91.379V30.2656H97.0722V20.2655H105.258C111.295 20.2655 116.109 17.023 116.109 11.326C116.109 5.62902 111.178 2.38657 105.114 2.38657ZM97.0104 15.9079V6.78054H105.114C108.067 6.78054 110.217 8.45934 110.217 11.326C110.217 14.1927 108.177 15.9079 105.224 15.9079H97.0104Z" fill="#272B37"/>
<path d="M146.333 3.93566C149.454 3.19507 152.387 1.91154 154.97 0.15625C140.2 2.79695 125.01 2.84398 110.221 0.294811C112.26 1.90203 114.69 3.04823 117.31 3.63963V5.96393H128.943V30.2656H134.694V5.96393H146.333V3.93566Z" fill="#272B37"/>
<path d="M163.193 1.27141C152.717 1.27141 145.549 7.25951 145.549 16.323C145.549 25.3864 152.717 31.3808 163.193 31.3808C173.668 31.3808 180.877 25.4239 180.877 16.323C180.877 7.22201 173.709 1.27141 163.193 1.27141ZM163.193 26.6554C156.407 26.6554 151.414 22.8174 151.414 16.323C151.414 9.82853 156.407 5.99069 163.193 5.99069C169.979 5.99069 175.012 9.87229 175.012 16.323C175.012 22.7736 170.02 26.6554 163.193 26.6554Z" fill="#272B37"/>
<path d="M209.363 10.6897C209.363 5.9624 204.52 2.38657 198.085 2.38657H183.232V30.2656H189.343V19.1685H197.134L205.515 30.2656H212.673L203.157 18.1443C206.599 16.8352 209.363 14.1928 209.363 10.6897ZM196.832 14.9322H189.314V6.81087H197.783C200.953 6.81087 203.171 8.11388 203.171 10.9442C203.208 13.6351 200.031 14.9018 196.862 14.9018L196.832 14.9322Z" fill="#272B37"/>
<path d="M230.313 1.27141C219.835 1.27141 212.673 7.25951 212.673 16.323C212.673 25.3864 219.835 31.3808 230.313 31.3808C240.791 31.3808 248.001 25.4239 248.001 16.323C248.001 7.22201 240.839 1.27141 230.313 1.27141ZM230.313 26.6554C223.492 26.6554 218.539 22.8174 218.539 16.323C218.539 9.82853 223.526 5.99069 230.313 5.99069C237.1 5.99069 242.134 9.87229 242.134 16.323C242.134 22.7736 237.148 26.6554 230.313 26.6554Z" fill="#272B37"/>
</svg>
