<svg width="26" height="26" viewBox="0 0 26 26" fill="none" xmlns="http://www.w3.org/2000/svg">
<path d="M10.9152 2.55469C9.60788 2.55539 8.31897 2.86277 7.15206 3.45213C5.98514 4.04149 4.97277 4.89639 4.1963 5.94811C3.41983 6.99984 2.90092 8.21906 2.68129 9.50778C2.46166 10.7965 2.54742 12.1188 2.93168 13.3683C3.31595 14.6179 3.988 15.7598 4.89382 16.7025C5.79965 17.6451 6.91397 18.362 8.14724 18.7957C9.38051 19.2294 10.6983 19.3677 11.9948 19.1995C13.2912 19.0314 14.5301 18.5614 15.6119 17.8274L20.7766 22.9879C20.9201 23.1419 21.0931 23.2653 21.2853 23.351C21.4775 23.4366 21.685 23.4827 21.8954 23.4864C22.1058 23.4901 22.3148 23.4514 22.5099 23.3726C22.705 23.2938 22.8822 23.1765 23.031 23.0277C23.1798 22.8789 23.2971 22.7016 23.3759 22.5065C23.4547 22.3114 23.4934 22.1024 23.4897 21.892C23.486 21.6816 23.44 21.4741 23.3543 21.2819C23.2687 21.0897 23.1452 20.9167 22.9912 20.7733L17.8307 15.6085C18.6845 14.352 19.1796 12.8865 19.2628 11.3697C19.346 9.85281 19.0142 8.34196 18.3031 6.99956C17.5919 5.65717 16.5283 4.534 15.2266 3.75084C13.9249 2.96768 12.4343 2.55414 10.9152 2.55469ZM5.69196 10.9118C5.69196 9.52655 6.24226 8.198 7.22181 7.21846C8.20135 6.23892 9.52989 5.68862 10.9152 5.68862C12.3005 5.68862 13.629 6.23892 14.6085 7.21846C15.5881 8.198 16.1384 9.52655 16.1384 10.9118C16.1384 12.2971 15.5881 13.6257 14.6085 14.6052C13.629 15.5847 12.3005 16.135 10.9152 16.135C9.52989 16.135 8.20135 15.5847 7.22181 14.6052C6.24226 13.6257 5.69196 12.2971 5.69196 10.9118Z" fill="white"/>
</svg>
