<svg xmlns="http://www.w3.org/2000/svg" viewBox="0 0 30 30" xml:space="preserve" fill="currentColor"><path d="M30 15c0-8.3-6.7-15-15-15S0 6.7 0 15s6.7 15 15 15 15-6.7 15-15zM9.3 8.9v4.8c.7-.9 1.6-1.3 2.6-1.3.5 0 1 .1 1.3.3.4.2.7.4.9.7.2.3.4.6.4 1 .1.4.1.9.1 1.7v5h-2.2v-4.6c0-.9 0-1.4-.1-1.7-.1-.3-.3-.4-.4-.5-.2-.2-.4-.2-.8-.2s-.7.1-1 .3c-.3.2-.5.4-.6.8-.2.4-.2.9-.2 1.6v4.3H7V8.9h2.3zm8.8 0v4.8c.7-.9 1.6-1.3 2.6-1.3.5 0 1 .1 1.3.3.4.2.7.4.9.7.2.3.4.6.4 1 .1.4.1.9.1 1.7v5h-2.2v-4.6c0-.9 0-1.4-.1-1.7-.1-.3-.3-.4-.4-.5-.2-.2-.4-.2-.8-.2s-.7.1-1 .3c-.3.2-.5.4-.6.8-.1.4-.2.9-.2 1.6v4.3h-2.2V8.9h2.2z"/></svg>