<?xml version="1.0" encoding="utf-8"?><svg xmlns="http://www.w3.org/2000/svg" xmlns:xlink="http://www.w3.org/1999/xlink"><symbol fill="currentColor" viewBox="0 0 24 24" id="ic-arrow" xmlns="http://www.w3.org/2000/svg"><path d="M16.84 10.494l-.327-.33a.543.543 0 00-.387-.16.543.543 0 00-.387.16L12.002 13.9l-3.74-3.741a.543.543 0 00-.387-.16.543.543 0 00-.387.16l-.328.328a.548.548 0 000 .773l4.454 4.47a.56.56 0 00.388.176h.002a.56.56 0 00.386-.176l4.45-4.458a.553.553 0 000-.78z"/></symbol><symbol fill="currentColor" viewBox="0 0 16 16" id="ic-close" xmlns="http://www.w3.org/2000/svg"><path d="M9.762 8l5.982-5.983A.871.871 0 0016 1.398a.868.868 0 00-.256-.618L15.22.255A.868.868 0 0014.601 0a.868.868 0 00-.619.255L8 6.238 2.018.255A.867.867 0 001.399 0 .867.867 0 00.78.255L.256.78a.876.876 0 000 1.237l5.982 5.982-5.982 5.983a.87.87 0 00-.255.619c0 .234.09.454.255.618l.524.524A.868.868 0 001.4 16c.234 0 .454-.09.619-.256L8 9.761l5.982 5.982a.868.868 0 00.619.256c.234 0 .454-.09.619-.256l.524-.524a.87.87 0 00.256-.618.87.87 0 00-.256-.62L9.762 8z"/></symbol><symbol fill="currentColor" viewBox="0 0 16 16" id="ic-copy" xmlns="http://www.w3.org/2000/svg"><path d="M10.666.668h-8c-.736 0-1.333.597-1.333 1.333v9.334h1.333V2h8V.668z"/><path d="M12.667 3.336H5.333C4.597 3.336 4 3.933 4 4.669v9.334c0 .736.597 1.333 1.333 1.333h7.334c.736 0 1.333-.597 1.333-1.333V4.669c0-.736-.597-1.333-1.333-1.333zm0 10.667H5.333V4.669h7.334v9.334z"/></symbol><symbol viewBox="0 0 1000 1000" fill="currentColor" id="ic-github" xmlns="http://www.w3.org/2000/svg"><path d="M455.34 24.62c-61.96 5.16-121.85 22.37-176.93 49.91-80.55 40.62-140.44 94.66-190.36 170.73-35.8 54.39-60.24 116-72.29 182.78-7.91 43.03-7.56 127.71.35 169.36 33.05 172.45 148.36 312.21 307.73 372.1 26.16 9.98 36.49 10.33 45.44 1.38 6.2-6.2 6.88-11.36 6.88-52.67v-45.44h-43.72c-37.86 0-46.47-1.03-60.24-7.57-27.19-12.39-45.44-32.35-62.65-68.16-15.15-31.67-34.42-55.42-58.17-72.29-23.75-16.87-5.16-29.95 28.57-20.31 14.8 4.48 23.06 9.64 37.86 25.13 10.33 10.67 24.44 26.85 30.98 36.14 7.57 10.67 18.93 20.65 30.98 27.54 16.52 9.29 22.03 10.67 44.75 10.33 14.11-.35 31.67-2.76 38.9-5.16 12.05-4.48 13.77-7.23 20.65-27.54 4.13-12.05 11.02-26.85 15.49-32.36l7.92-9.98-35.46-7.57c-63.68-13.43-99.82-32.01-132.52-68.16-33.73-36.83-52.67-94.31-52.67-160.4 0-51.63 9.98-84.68 36.83-121.17l11.7-16.18-4.13-21c-7.23-37.52 2.75-103.96 16.52-109.12 14.46-5.51 72.97 15.83 112.21 40.96l16.18 10.33 32.01-6.2c44.06-8.95 139.41-9.29 183.47-.34l31.33 6.54 30.29-17.56c33.73-19.28 64.71-30.64 87.43-32.01l15.49-1.03 6.54 17.21c8.61 22.03 11.71 70.91 5.85 93.97l-4.13 17.56 15.49 23.41c27.54 41.99 31.67 57.14 31.67 116.35-.34 43.37-1.38 56.11-7.92 79.17-19.28 67.12-60.24 110.84-125.3 134.59-8.26 3.1-30.64 8.95-50.25 13.08l-35.46 7.57 7.57 9.29c4.13 5.51 10.67 17.9 14.46 27.54 6.88 16.18 7.57 26.16 8.61 107.4.69 59.9 2.41 90.88 5.16 93.97 11.71 14.46 27.88 11.71 83.65-14.8 67.12-31.32 136.31-88.12 182.09-149.39 42.68-56.45 77.11-136.31 89.84-206.88 7.92-43.72 7.92-121.51 0-165.23-19.96-110.5-81.58-218.24-165.57-288.8C716.26 54.91 586.14 12.92 455.34 24.62z"/></symbol><symbol viewBox="0 0 30 30" fill="currentColor" id="ic-hh" xmlns="http://www.w3.org/2000/svg"><path d="M30 15c0-8.3-6.7-15-15-15S0 6.7 0 15s6.7 15 15 15 15-6.7 15-15zM9.3 8.9v4.8c.7-.9 1.6-1.3 2.6-1.3.5 0 1 .1 1.3.3.4.2.7.4.9.7.2.3.4.6.4 1 .1.4.1.9.1 1.7v5h-2.2v-4.6c0-.9 0-1.4-.1-1.7-.1-.3-.3-.4-.4-.5-.2-.2-.4-.2-.8-.2s-.7.1-1 .3c-.3.2-.5.4-.6.8-.2.4-.2.9-.2 1.6v4.3H7V8.9h2.3zm8.8 0v4.8c.7-.9 1.6-1.3 2.6-1.3.5 0 1 .1 1.3.3.4.2.7.4.9.7.2.3.4.6.4 1 .1.4.1.9.1 1.7v5h-2.2v-4.6c0-.9 0-1.4-.1-1.7-.1-.3-.3-.4-.4-.5-.2-.2-.4-.2-.8-.2s-.7.1-1 .3c-.3.2-.5.4-.6.8-.1.4-.2.9-.2 1.6v4.3h-2.2V8.9h2.2z"/></symbol><symbol viewBox="0 0 60 60" fill="currentColor" id="ic-htmlacademy" xmlns="http://www.w3.org/2000/svg"><path d="M30.2 5H30L10.3 7.1v36.2L30 55l19.7-11.7V7.1L30.2 5zm17 36.8L30 52 12.8 41.8V27l17.1 10.2V39l-11.7-7v1.8L30 40.9v1.9l-11.8-7v1.8l11.8 7 11.9-7.1v-7.6l5.3-3.2v15.1zm-.1-17l-4.7 2.8-2.2 1.3-10.3-6.1v1.8l8.8 5.3h-.1l-.2.1-1.3.7-7.3-4.3v1.8l5.8 3.4-1.4.9-4.3-2.6v1.8l2.9 1.7-2.9 1.7-17-10.1 17-10.2 17.2 10zm.1-1.8L29.9 12.8 12.8 23V9.4L30 7.6l17.2 1.8V23z"/></symbol><symbol fill="currentColor" viewBox="0 0 24 24" id="ic-menu" xmlns="http://www.w3.org/2000/svg"><path d="M22.083 13H1.917C1.41 13 1 12.552 1 12s.41-1 .917-1h20.166c.506 0 .917.448.917 1s-.41 1-.917 1zm0-6H1.917C1.41 7 1 6.552 1 6s.41-1 .917-1h20.166c.506 0 .917.448.917 1s-.41 1-.917 1zm0 12H1.917C1.41 19 1 18.552 1 18s.41-1 .917-1h20.166c.506 0 .917.448.917 1s-.41 1-.917 1z"/></symbol><symbol fill="currentColor" fill-rule="evenodd" clip-rule="evenodd" stroke-linejoin="round" stroke-miterlimit="1.414" viewBox="0 0 24 24" id="ic-telegram" xmlns="http://www.w3.org/2000/svg"><path d="M18.384 22.779a1.19 1.19 0 001.107.145 1.16 1.16 0 00.724-.84C21.084 18 23.192 7.663 23.983 3.948a.78.78 0 00-.26-.758.8.8 0 00-.797-.14C18.733 4.602 5.82 9.447.542 11.4a.827.827 0 00-.542.799c.012.354.25.661.593.764 2.367.708 5.474 1.693 5.474 1.693s1.452 4.385 2.209 6.615c.095.28.314.5.603.576a.866.866 0 00.811-.207l3.096-2.923s3.572 2.619 5.598 4.062zm-11.01-8.677l1.679 5.538.373-3.507 10.185-9.186a.277.277 0 00.033-.377.284.284 0 00-.376-.064L7.374 14.102z"/></symbol><symbol fill="currentColor" viewBox="0 0 548.358 548.358" id="ic-vk" xmlns="http://www.w3.org/2000/svg"><path d="M545.451 400.298c-.664-1.431-1.283-2.618-1.858-3.569-9.514-17.135-27.695-38.167-54.532-63.102l-.567-.571-.284-.28-.287-.287h-.288c-12.18-11.611-19.893-19.418-23.123-23.415-5.91-7.614-7.234-15.321-4.004-23.13 2.282-5.9 10.854-18.36 25.696-37.397 7.807-10.089 13.99-18.175 18.556-24.267 32.931-43.78 47.208-71.756 42.828-83.939l-1.701-2.847c-1.143-1.714-4.093-3.282-8.846-4.712-4.764-1.427-10.853-1.663-18.278-.712l-82.224.568c-1.332-.472-3.234-.428-5.712.144l-3.713.859-1.431.715-1.136.859c-.952.568-1.999 1.567-3.142 2.995-1.137 1.423-2.088 3.093-2.848 4.996-8.952 23.031-19.13 44.444-30.553 64.238-7.043 11.803-13.511 22.032-19.418 30.693-5.899 8.658-10.848 15.037-14.842 19.126-4 4.093-7.61 7.372-10.852 9.849-3.237 2.478-5.708 3.525-7.419 3.142-1.715-.383-3.33-.763-4.859-1.143-2.663-1.714-4.805-4.045-6.42-6.995-1.622-2.95-2.714-6.663-3.285-11.136-.568-4.476-.904-8.326-1-11.563-.089-3.233-.048-7.806.145-13.706.198-5.903.287-9.897.287-11.991 0-7.234.141-15.085.424-23.555.288-8.47.521-15.181.716-20.125.194-4.949.284-10.185.284-15.705s-.336-9.849-1-12.991a44.442 44.442 0 00-2.99-9.137c-1.335-2.95-3.289-5.232-5.853-6.852-2.569-1.618-5.763-2.902-9.564-3.856-10.089-2.283-22.936-3.518-38.547-3.71-35.401-.38-58.148 1.906-68.236 6.855-3.997 2.091-7.614 4.948-10.848 8.562-3.427 4.189-3.905 6.475-1.431 6.851 11.422 1.711 19.508 5.804 24.267 12.275l1.715 3.429c1.334 2.474 2.666 6.854 3.999 13.134 1.331 6.28 2.19 13.227 2.568 20.837.95 13.897.95 25.793 0 35.689-.953 9.9-1.853 17.607-2.712 23.127-.859 5.52-2.143 9.993-3.855 13.418-1.715 3.426-2.856 5.52-3.428 6.28-.571.76-1.047 1.239-1.425 1.427a21.387 21.387 0 01-7.71 1.431c-2.667 0-5.901-1.334-9.707-4-3.805-2.666-7.754-6.328-11.847-10.992-4.093-4.665-8.709-11.184-13.85-19.558-5.137-8.374-10.467-18.271-15.987-29.691l-4.567-8.282c-2.855-5.328-6.755-13.086-11.704-23.267-4.952-10.185-9.329-20.037-13.134-29.554-1.521-3.997-3.806-7.04-6.851-9.134l-1.429-.859c-.95-.76-2.475-1.567-4.567-2.427a30.301 30.301 0 00-6.567-1.854l-78.229.568c-7.994 0-13.418 1.811-16.274 5.428l-1.143 1.711c-.571.953-.859 2.475-.859 4.57 0 2.094.571 4.664 1.714 7.707 11.42 26.84 23.839 52.725 37.257 77.659 13.418 24.934 25.078 45.019 34.973 60.237 9.897 15.229 19.985 29.602 30.264 43.112 10.279 13.515 17.083 22.176 20.412 25.981 3.333 3.812 5.951 6.662 7.854 8.565l7.139 6.851c4.568 4.569 11.276 10.041 20.127 16.416 8.853 6.379 18.654 12.659 29.408 18.85 10.756 6.181 23.269 11.225 37.546 15.126 14.275 3.905 28.169 5.472 41.684 4.716h32.834c6.659-.575 11.704-2.669 15.133-6.283l1.136-1.431c.764-1.136 1.479-2.901 2.139-5.276.668-2.379 1-5 1-7.851-.195-8.183.428-15.558 1.852-22.124 1.423-6.564 3.045-11.513 4.859-14.846 1.813-3.33 3.859-6.14 6.136-8.418 2.282-2.283 3.908-3.666 4.862-4.142.948-.479 1.705-.804 2.276-.999 4.568-1.522 9.944-.048 16.136 4.429 6.187 4.473 11.99 9.996 17.418 16.56 5.425 6.57 11.943 13.941 19.555 22.124 7.617 8.186 14.277 14.271 19.985 18.274l5.708 3.426c3.812 2.286 8.761 4.38 14.853 6.283 6.081 1.902 11.409 2.378 15.984 1.427l73.087-1.14c7.229 0 12.854-1.197 16.844-3.572 3.998-2.379 6.373-5 7.139-7.851.764-2.854.805-6.092.145-9.712-.677-3.611-1.344-6.136-2.008-7.563z"/></symbol></svg>